<svg width="1200" height="620" viewBox="0 0 1200 620" xmlns="http://www.w3.org/2000/svg">
  <rect width="1200" height="620" fill="#f8fafc"/>
  <text x="600" y="70" text-anchor="middle" font-size="40" font-family="Microsoft YaHei, PingFang SC, sans-serif" fill="#0f172a" font-weight="700">Agent 执行闭环</text>
  <g font-family="Microsoft YaHei, PingFang SC, sans-serif" font-size="28" fill="#0f172a" text-anchor="middle">
    <rect x="70" y="220" rx="20" width="200" height="120" fill="#dbeafe" stroke="#60a5fa" stroke-width="3"/><text x="170" y="290">目标</text>
    <rect x="320" y="220" rx="20" width="200" height="120" fill="#dcfce7" stroke="#4ade80" stroke-width="3"/><text x="420" y="290">规划</text>
    <rect x="570" y="220" rx="20" width="200" height="120" fill="#fef3c7" stroke="#f59e0b" stroke-width="3"/><text x="670" y="290">调用工具</text>
    <rect x="820" y="220" rx="20" width="200" height="120" fill="#fee2e2" stroke="#f87171" stroke-width="3"/><text x="920" y="290">观察反馈</text>
    <rect x="1040" y="220" rx="20" width="120" height="120" fill="#ede9fe" stroke="#8b5cf6" stroke-width="3"/><text x="1100" y="290">迭代</text>
  </g>
  <g stroke="#334155" stroke-width="4" fill="none" marker-end="url(#a)">
    <defs><marker id="a" markerWidth="10" markerHeight="7" refX="9" refY="3.5" orient="auto"><polygon points="0 0,10 3.5,0 7" fill="#334155"/></marker></defs>
    <line x1="270" y1="280" x2="320" y2="280"/>
    <line x1="520" y1="280" x2="570" y2="280"/>
    <line x1="770" y1="280" x2="820" y2="280"/>
    <line x1="1020" y1="280" x2="1040" y2="280"/>
    <path d="M1100 340 C1100 470, 170 470, 170 350"/>
  </g>
</svg>